<svg width="17" height="17" viewBox="0 0 17 17" fill="none" xmlns="http://www.w3.org/2000/svg">
<path fill-rule="evenodd" clip-rule="evenodd" d="M10.2567 2.6248C10.3521 2.20275 10.5312 1.80413 10.7834 1.45252C11.0356 1.1009 11.3558 0.803438 11.7249 0.577721C12.0941 0.352003 12.5048 0.202618 12.9327 0.138402C13.3606 0.0741866 13.797 0.0964448 14.2162 0.20386C14.6353 0.311276 15.0287 0.501667 15.373 0.763769C15.7172 1.02587 16.0055 1.35436 16.2206 1.72981C16.4357 2.10525 16.5733 2.52003 16.6253 2.94959C16.6773 3.37916 16.6426 3.81479 16.5233 4.23071C16.3767 4.77971 16.0876 5.28019 15.6852 5.68139C15.273 6.0942 14.7567 6.38764 14.1911 6.53055L13.8603 6.61925V8.47649C13.8602 8.66022 13.787 8.83637 13.657 8.96621L13.426 9.19721C13.2961 9.32699 13.12 9.39988 12.9363 9.39988C12.7527 9.39988 12.5765 9.32699 12.4466 9.19721L11.6658 8.41736L5.74759 14.3347C5.55461 14.5279 5.32546 14.6812 5.07322 14.7858C4.82098 14.8905 4.55059 14.9444 4.27751 14.9445H3.80719C3.62346 14.9447 3.44731 15.0178 3.31747 15.1478L1.87603 16.5892C1.81168 16.6536 1.73526 16.7047 1.65115 16.7395C1.56705 16.7744 1.4769 16.7923 1.38585 16.7923C1.29481 16.7923 1.20466 16.7744 1.12055 16.7395C1.03644 16.7047 0.960027 16.6536 0.89567 16.5892L0.20267 15.8962C0.0728939 15.7663 0 15.5901 0 15.4065C0 15.2228 0.0728939 15.0467 0.20267 14.9168L1.64411 13.4744C1.77411 13.3446 1.84723 13.1684 1.84739 12.9847V12.5153C1.84739 11.9646 2.06638 11.4351 2.45631 11.0461L8.37453 5.12699L7.59467 4.34621C7.46489 4.21627 7.392 4.04014 7.392 3.85649C7.392 3.67285 7.46489 3.49671 7.59467 3.36677L7.82567 3.13577C7.89007 3.07129 7.96655 3.02015 8.05075 2.98527C8.13494 2.95038 8.22518 2.93245 8.31631 2.93249H10.1736L10.2567 2.6248ZM3.43759 12.0247L9.35581 6.10643L10.6864 7.43607L4.76723 13.3543C4.63739 13.4843 4.46124 13.5574 4.27751 13.5576H3.80719C3.5688 13.5576 3.33503 13.5982 3.11419 13.6768C3.19299 13.4542 3.23329 13.2199 3.23339 12.9838V12.5144C3.23355 12.3306 3.30759 12.1545 3.43759 12.0247Z" fill="#353535"/>
</svg>
