<svg width="14" height="17" viewBox="0 0 14 17" fill="none" xmlns="http://www.w3.org/2000/svg">
<path d="M1.9999 16.5C1.5599 16.5 1.1831 16.3435 0.869502 16.0304C0.556436 15.7168 0.399902 15.34 0.399902 14.9V3.7H1.9999V14.9H10.7999V16.5H1.9999ZM5.1999 13.3C4.7599 13.3 4.38337 13.1435 4.0703 12.8304C3.7567 12.5168 3.5999 12.14 3.5999 11.7V2.1C3.5999 1.66 3.7567 1.2832 4.0703 0.9696C4.38337 0.656533 4.7599 0.5 5.1999 0.5H12.3999C12.8399 0.5 13.2167 0.656533 13.5303 0.9696C13.8434 1.2832 13.9999 1.66 13.9999 2.1V11.7C13.9999 12.14 13.8434 12.5168 13.5303 12.8304C13.2167 13.1435 12.8399 13.3 12.3999 13.3H5.1999ZM5.1999 11.7H12.3999V2.1H5.1999V11.7Z" fill="white"/>
</svg>
