<svg width="15" height="21" viewBox="0 0 15 21" fill="none" xmlns="http://www.w3.org/2000/svg">
<path d="M7.5 20.0833C6.97292 20.0833 6.52186 19.8958 6.14683 19.5208C5.77117 19.1451 5.58333 18.6938 5.58333 18.1667H9.41667C9.41667 18.6938 9.22915 19.1451 8.85412 19.5208C8.47846 19.8958 8.02708 20.0833 7.5 20.0833ZM3.66667 17.2083V15.2917H11.3333V17.2083H3.66667ZM3.90625 14.3333C2.80417 13.6785 1.92985 12.8 1.28329 11.6979C0.636097 10.5958 0.3125 9.39792 0.3125 8.10417C0.3125 6.10764 1.01144 4.41076 2.40933 3.01351C3.80658 1.61562 5.50347 0.916672 7.5 0.916672C9.49653 0.916672 11.1934 1.61562 12.5907 3.01351C13.9886 4.41076 14.6875 6.10764 14.6875 8.10417C14.6875 9.39792 14.3642 10.5958 13.7177 11.6979C13.0705 12.8 12.1958 13.6785 11.0937 14.3333H3.90625Z" fill="#F2F2F2"/>
</svg>
