<svg width="21" height="22" viewBox="0 0 21 22" fill="none" xmlns="http://www.w3.org/2000/svg">
<path d="M9.96673 20.7333C9.72229 20.4889 9.59429 20.1778 9.58273 19.8C9.57207 19.4222 9.68895 19.1111 9.9334 18.8667L16.4667 12.3333H1.56673C1.18895 12.3333 0.872065 12.2053 0.616065 11.9493C0.360954 11.6942 0.233398 11.3778 0.233398 11C0.233398 10.6222 0.360954 10.3053 0.616065 10.0493C0.872065 9.79422 1.18895 9.66667 1.56673 9.66667H16.4667L9.9334 3.13333C9.68895 2.88889 9.57207 2.57778 9.58273 2.2C9.59429 1.82222 9.72229 1.51111 9.96673 1.26667C10.2112 1.02222 10.5223 0.900002 10.9001 0.900002C11.2778 0.900002 11.589 1.02222 11.8334 1.26667L20.6334 10.0667C20.7667 10.1778 20.8614 10.3164 20.9174 10.4827C20.9725 10.6498 21.0001 10.8222 21.0001 11C21.0001 11.1778 20.9725 11.3444 20.9174 11.5C20.8614 11.6556 20.7667 11.8 20.6334 11.9333L11.8334 20.7333C11.589 20.9778 11.2778 21.1 10.9001 21.1C10.5223 21.1 10.2112 20.9778 9.96673 20.7333Z" fill="black"/>
</svg>
